# XSI Wavefront OBJ Export v3.0
# File Created: Wed Jul 30 21:43:02 2014
# XSI Version: 12.0.921.0
mtllib ClockTower.mtl

o Clocktower
# Hierarchy (from self to top father)
g Clocktower

#begin 76 vertices
v -255.000000 0.000000 -95.146004
v -205.000000 0.000000 -95.146004
v -231.075269 66.722952 -71.221273
v -201.935096 50.000000 -97.410624
v -255.000000 0.000000 65.000000
v -205.000000 0.000000 65.000000
v -258.064904 50.045752 68.099835
v -201.935096 50.045752 68.099835
v -258.064904 50.000000 -97.410624
v -228.924731 66.722952 -71.221273
v -231.075269 66.938242 41.075269
v -228.924731 66.938242 41.075269
v -205.000000 50.045752 7.816678
v -228.924731 66.938242 7.814577
v -231.214847 92.479956 -14.317355
v -255.000000 50.045752 7.816678
v -255.000000 0.000000 7.814577
v -205.000000 0.000000 7.814577
v -205.000000 49.998298 -45.604752
v -228.924731 66.963497 -45.624065
v -231.075269 66.963497 -45.624065
v -255.000000 49.998298 -45.604752
v -255.000000 -0.077071 -45.542290
v -205.000000 -0.077071 -45.542290
v -205.000000 67.131260 7.814577
v -228.924731 92.479956 -14.895242
v -231.075269 66.938242 7.814577
v -255.000000 67.131260 7.814577
v -205.000000 66.967787 -45.604752
v -228.924731 92.720500 -22.914246
v -231.075269 92.720500 -22.914246
v -258.245192 77.316482 -49.456121
v -228.924731 77.283227 7.814577
v -228.924731 77.523771 -45.624065
v -231.075269 77.523771 -45.624065
v -205.000000 77.479956 7.814577
v -231.075269 77.283227 7.814577
v -255.000000 77.479956 7.814577
v -205.000000 77.316482 -45.604752
v -255.000000 66.967787 -45.604752
v -205.000000 48.770445 65.000000
v -255.000000 48.770445 65.000000
v -255.000000 48.770445 7.814577
v -255.000000 48.609096 -45.603216
v -255.000000 48.770445 -95.146004
v -205.000000 48.770445 -95.146004
v -205.000000 48.609096 -45.603216
v -205.000000 48.770445 7.814577
v -231.207093 66.722952 -71.221273
v -255.000000 50.000000 -97.410624
v -231.207093 66.963497 -45.624065
v -258.064904 49.998298 -45.604752
v -205.000000 50.045752 68.099835
v -228.792907 66.938242 41.075269
v -201.935096 50.045752 7.816678
v -228.792907 66.938242 7.814577
v -255.000000 50.045752 68.099835
v -231.207093 66.938242 41.075269
v -258.064904 50.045752 7.816678
v -231.207093 66.938242 7.814577
v -205.000000 50.000000 -97.410624
v -228.792907 66.722952 -71.221273
v -201.935096 49.998298 -45.604752
v -228.792907 66.963497 -45.624065
v -231.075269 92.479956 -14.895242
v -228.785153 92.479956 -14.317355
v -228.785153 92.720500 -23.492946
v -231.214847 92.720500 -23.492946
v -255.000000 77.316482 -45.604752
v -228.785153 77.283227 11.667920
v -228.785153 77.523771 -49.478220
v -231.214847 77.523771 -49.478220
v -201.754808 77.479956 11.667920
v -231.214847 77.283227 11.667920
v -258.245192 77.479956 11.667920
v -201.754808 77.316482 -49.456121
#end 76 vertices

#begin 304 normals
vn 0.000000 -0.000000 -1.000000
vn 0.000000 -0.878823 -0.477149
vn 0.000000 -0.878823 -0.477149
vn 0.000000 -0.000000 -1.000000
vn -0.000000 -0.999999 -0.001554
vn -0.000000 -0.999999 -0.001554
vn 0.000000 -1.000000 0.000000
vn 0.000000 -1.000000 0.000000
vn -1.000000 0.000000 -0.000000
vn -1.000000 -0.000000 0.000000
vn -1.000000 0.000000 0.000000
vn -1.000000 0.000000 0.000000
vn 1.000000 0.000000 0.000000
vn 1.000000 -0.000000 -0.000000
vn 1.000000 -0.000000 0.000000
vn 1.000000 0.000000 -0.000000
vn 0.000000 0.958576 -0.284838
vn -0.000000 0.961241 0.275710
vn 0.000000 0.961241 0.275710
vn 0.000000 0.958576 -0.284838
vn 0.000000 0.000000 1.000000
vn 0.000000 0.000000 1.000000
vn 0.000000 -0.924793 0.380470
vn 0.000000 -0.924793 0.380470
vn -0.286311 0.912582 -0.291925
vn -0.287239 0.914176 0.285966
vn -0.190334 0.963258 0.189490
vn -0.189633 0.961948 -0.196711
vn -0.000000 0.847968 0.530047
vn 0.000000 0.847968 0.530047
vn 0.000000 0.961241 0.275710
vn -0.000000 0.961241 0.275710
vn 0.287239 0.914176 0.285966
vn 0.286311 0.912582 -0.291925
vn 0.189633 0.961948 -0.196711
vn 0.190334 0.963258 0.189490
vn 0.000000 0.842830 -0.538181
vn 0.000000 0.842830 -0.538181
vn 0.000000 0.958576 -0.284838
vn 0.000000 0.958576 -0.284838
vn 1.000000 -0.000000 0.000000
vn 0.532407 0.846488 0.000000
vn 0.277048 0.960856 0.000000
vn 0.000027 0.999813 0.019319
vn -0.102146 0.970321 0.219188
vn -0.000027 0.999813 0.019319
vn -1.000000 0.000000 -0.000000
vn -0.258680 0.927355 0.270365
vn -0.000000 -1.000000 0.000722
vn -1.000000 0.000000 0.000000
vn -0.000000 -1.000000 0.000722
vn 1.000000 0.000000 0.000000
vn -0.000000 -1.000000 0.000722
vn -0.000000 -1.000000 0.000722
vn -1.000000 0.000000 0.000000
vn -1.000000 0.000000 -0.000000
vn 1.000000 -0.000000 0.000000
vn 1.000000 0.000000 0.000000
vn -0.000000 1.000000 0.000000
vn 0.000000 1.000000 0.000000
vn -0.532407 0.846488 0.000000
vn -0.277048 0.960856 0.000000
vn 0.258680 0.927355 0.270365
vn 0.102146 0.970321 0.219188
vn 1.000000 -0.000000 0.000000
vn 0.530396 0.847746 -0.002616
vn 0.275909 0.961164 -0.006249
vn 0.000000 0.999956 -0.009397
vn -0.275909 0.961164 -0.006249
vn 0.000000 0.999956 -0.009397
vn -1.000000 0.000000 -0.000000
vn -0.530396 0.847746 -0.002616
vn -0.000000 -1.000000 -0.000055
vn -1.000000 0.000000 0.000000
vn -0.000000 -1.000000 -0.000055
vn 1.000000 0.000000 0.000000
vn -0.000000 -1.000000 -0.000055
vn -0.000000 -1.000000 -0.000055
vn -1.000000 0.000000 0.000000
vn -1.000000 0.000000 -0.000000
vn 1.000000 -0.000000 0.000000
vn 1.000000 0.000000 0.000000
vn -0.000027 0.999813 0.019319
vn 0.000027 0.999813 0.019319
vn -0.265376 0.925883 -0.268915
vn -0.105200 0.972571 -0.207459
vn 0.105200 0.972571 -0.207459
vn 0.265376 0.925883 -0.268915
vn 0.003141 0.863215 0.504826
vn -0.003141 0.863215 0.504826
vn 0.102146 0.970321 0.219188
vn -0.102146 0.970321 0.219188
vn -0.003141 0.863215 0.504826
vn -0.000001 0.000123 1.000000
vn 0.258680 0.927355 0.270365
vn 0.102146 0.970321 0.219188
vn 1.000000 -0.000000 0.000000
vn 1.000000 -0.000000 0.000000
vn 1.000000 0.000000 0.000000
vn 1.000000 0.000000 0.000000
vn 0.000807 0.000000 -1.000000
vn 0.000538 0.000000 -1.000000
vn 0.105200 0.972571 -0.207459
vn 0.000807 0.000000 -1.000000
vn 0.003516 0.863214 -0.504826
vn -0.003516 0.863214 -0.504826
vn -0.105200 0.972571 -0.207459
vn 0.105200 0.972571 -0.207459
vn -0.003516 0.863214 -0.504826
vn -0.000807 0.000000 -1.000000
vn -0.265376 0.925883 -0.268915
vn -0.105200 0.972571 -0.207459
vn -1.000000 0.000000 -0.000000
vn -1.000000 0.000000 -0.000000
vn -1.000000 -0.000000 -0.000000
vn -1.000000 -0.000000 -0.000000
vn 0.000001 0.000123 1.000000
vn 0.000000 0.000041 1.000000
vn -0.102146 0.970321 0.219188
vn 0.000000 0.000061 1.000000
vn 0.003141 0.863215 0.504826
vn -0.258680 0.927355 0.270365
vn -0.000000 0.000041 1.000000
vn -0.000000 0.000061 1.000000
vn -0.000538 0.000000 -1.000000
vn -0.000807 0.000000 -1.000000
vn 0.003516 0.863214 -0.504826
vn 0.265376 0.925883 -0.268915
vn -1.000000 -0.000000 -0.000000
vn -1.000000 -0.000000 -0.000000
vn -1.000000 0.000000 -0.000000
vn -1.000000 0.000000 -0.000000
vn 0.000000 0.000061 1.000000
vn 0.000000 0.000041 1.000000
vn 0.000000 0.000000 1.000000
vn 0.000000 0.000000 1.000000
vn 0.000000 0.000041 1.000000
vn -0.000000 0.000041 1.000000
vn -0.000000 0.000000 1.000000
vn 0.000000 0.000000 1.000000
vn -0.000000 0.000041 1.000000
vn -0.000000 0.000061 1.000000
vn -0.000000 0.000000 1.000000
vn -0.000000 0.000000 1.000000
vn 1.000000 0.000000 0.000000
vn 1.000000 0.000000 0.000000
vn 1.000000 0.000000 0.000000
vn 1.000000 0.000000 0.000000
vn 0.000807 0.000000 -1.000000
vn 0.000538 0.000000 -1.000000
vn 0.000404 0.000000 -1.000000
vn 0.000807 0.000000 -1.000000
vn 0.000538 0.000000 -1.000000
vn -0.000538 0.000000 -1.000000
vn -0.000404 0.000000 -1.000000
vn 0.000404 0.000000 -1.000000
vn -0.000538 0.000000 -1.000000
vn -0.000807 0.000000 -1.000000
vn -0.000807 0.000000 -1.000000
vn -0.000404 0.000000 -1.000000
vn 1.000000 0.000000 0.000000
vn 0.000000 0.000000 1.000000
vn -1.000000 0.000000 0.000000
vn 0.000000 0.000000 1.000000
vn -1.000000 0.000000 -0.000000
vn -1.000000 0.000000 -0.000000
vn -1.000000 0.000000 0.000000
vn -1.000000 0.000000 0.000000
vn 0.000000 -0.000000 -1.000000
vn -1.000000 0.000000 0.000000
vn 0.000000 -0.000000 -1.000000
vn 1.000000 -0.000000 -0.000000
vn 1.000000 -0.000000 -0.000000
vn 1.000000 -0.000000 -0.000000
vn 1.000000 -0.000000 0.000000
vn 1.000000 -0.000000 0.000000
vn 0.000000 -0.878823 -0.477149
vn 0.000000 -0.878823 -0.477149
vn -1.000000 0.000000 0.000000
vn -1.000000 0.000000 0.000000
vn 1.000000 -0.000000 -0.000000
vn 1.000000 -0.000000 -0.000000
vn 0.000000 -0.924793 0.380470
vn 0.000000 -0.924793 0.380470
vn -1.000000 0.000000 0.000000
vn -1.000000 0.000000 -0.000000
vn 1.000000 0.000000 0.000000
vn 1.000000 -0.000000 0.000000
vn -1.000000 0.000000 -0.000000
vn -1.000000 0.000000 0.000000
vn 1.000000 -0.000000 0.000000
vn 1.000000 -0.000000 -0.000000
vn -0.000000 -1.000000 -0.000033
vn -0.000000 -1.000000 -0.000033
vn -0.000000 -1.000000 -0.000033
vn -0.000000 -1.000000 -0.000033
vn 0.000000 0.001138 0.999999
vn 0.000000 0.001138 0.999999
vn 0.000000 0.001138 0.999999
vn 0.000000 0.001138 0.999999
vn 0.000000 0.999956 -0.009397
vn 0.000000 0.958576 -0.284838
vn -0.189633 0.961948 -0.196711
vn -0.275909 0.961164 -0.006249
vn 0.000000 0.958576 -0.284838
vn 0.000000 0.842830 -0.538181
vn -0.286311 0.912582 -0.291925
vn -0.189633 0.961948 -0.196711
vn 0.000000 -1.000000 0.000000
vn 0.000000 -1.000000 0.000000
vn 0.000000 -1.000000 0.000000
vn 0.000000 -1.000000 0.000000
vn 0.000000 -0.000124 -1.000000
vn 0.000000 -0.000124 -1.000000
vn 0.000000 -0.000124 -1.000000
vn 0.000000 -0.000124 -1.000000
vn 0.000000 1.000000 0.000000
vn 0.000000 0.961241 0.275710
vn 0.190334 0.963258 0.189490
vn 0.277048 0.960856 0.000000
vn 0.000000 0.961241 0.275710
vn 0.000000 0.847968 0.530047
vn 0.287239 0.914176 0.285966
vn 0.190334 0.963258 0.189490
vn -0.000000 0.847968 0.530047
vn -0.000000 0.961241 0.275710
vn -0.190334 0.963258 0.189490
vn -0.287239 0.914176 0.285966
vn -0.000000 0.961241 0.275710
vn -0.000000 1.000000 0.000000
vn -0.277048 0.960856 0.000000
vn -0.190334 0.963258 0.189490
vn 0.000000 -0.000124 -1.000000
vn 0.000000 -0.000124 -1.000000
vn 0.000000 -0.000124 -1.000000
vn 0.000000 -0.000124 -1.000000
vn 0.000000 -1.000000 0.000000
vn 0.000000 -1.000000 0.000000
vn 0.000000 -1.000000 0.000000
vn 0.000000 -1.000000 0.000000
vn 0.000000 0.842830 -0.538181
vn 0.000000 0.958576 -0.284838
vn 0.189633 0.961948 -0.196711
vn 0.286311 0.912582 -0.291925
vn 0.000000 0.958576 -0.284838
vn 0.000000 0.999956 -0.009397
vn 0.275909 0.961164 -0.006249
vn 0.189633 0.961948 -0.196711
vn 0.000000 0.001138 0.999999
vn 0.000000 0.001138 0.999999
vn 0.000000 0.001138 0.999999
vn 0.000000 0.001138 0.999999
vn -0.000000 -1.000000 -0.000033
vn -0.000000 -1.000000 -0.000033
vn -0.000000 -1.000000 -0.000033
vn -0.000000 -1.000000 -0.000033
vn -0.000027 0.999813 0.019319
vn -0.000027 0.999813 0.019319
vn -0.105200 0.972571 -0.207459
vn -0.102146 0.970321 0.219188
vn -0.000027 0.999813 0.019319
vn 0.000027 0.999813 0.019319
vn 0.105200 0.972571 -0.207459
vn -0.105200 0.972571 -0.207459
vn 0.000027 0.999813 0.019319
vn 0.000027 0.999813 0.019319
vn 0.102146 0.970321 0.219188
vn 0.105200 0.972571 -0.207459
vn 0.000027 0.999813 0.019319
vn -0.000027 0.999813 0.019319
vn -0.102146 0.970321 0.219188
vn 0.102146 0.970321 0.219188
vn 0.004067 -0.999992 -0.000359
vn -0.003860 -0.999993 -0.000268
vn -0.003860 -0.999993 -0.000268
vn 0.004067 -0.999992 -0.000359
vn -0.003860 -0.999993 -0.000268
vn -0.003861 -0.999991 -0.001696
vn -0.003861 -0.999991 -0.001696
vn -0.003860 -0.999993 -0.000268
vn -0.003861 -0.999991 -0.001696
vn 0.003861 -0.999991 -0.001696
vn 0.003861 -0.999991 -0.001696
vn -0.003861 -0.999991 -0.001696
vn 0.003861 -0.999991 -0.001696
vn 0.003860 -0.999993 -0.000268
vn 0.003860 -0.999993 -0.000268
vn 0.003861 -0.999991 -0.001696
vn 0.003860 -0.999993 -0.000268
vn -0.004067 -0.999992 -0.000359
vn -0.004067 -0.999992 -0.000359
vn 0.003860 -0.999993 -0.000268
vn -0.004067 -0.999992 -0.000359
vn -0.004067 -0.999990 -0.001786
vn -0.004067 -0.999990 -0.001786
vn -0.004067 -0.999992 -0.000359
vn -0.004067 -0.999990 -0.001786
vn 0.004067 -0.999990 -0.001786
vn 0.004067 -0.999990 -0.001786
vn -0.004067 -0.999990 -0.001786
vn 0.004067 -0.999990 -0.001786
vn 0.004067 -0.999992 -0.000359
vn 0.004067 -0.999992 -0.000359
vn 0.004067 -0.999990 -0.001786
#end 304 vertex normals

#begin texture vertices
vt 0.168550 0.338674 0.000000
vt 0.954301 0.012592 0.000000
vt 0.501833 0.085540 0.000000
vt 0.954301 0.069559 0.000000
vt 0.022957 0.338674 0.000000
vt 0.493995 0.085540 0.000000
vt 0.347127 0.785986 0.000000
vt 0.072042 0.704088 0.000000
vt 0.007491 0.586471 0.000000
vt 0.224792 0.983438 0.000000
vt 0.099957 0.069704 0.000000
vt 0.982521 0.085540 0.000000
vt 0.125964 0.012592 0.000000
vt 0.828073 0.339842 0.000000
vt 0.125964 0.069559 0.000000
vt 0.013308 0.085540 0.000000
vt 0.969474 0.339842 0.000000
vt 0.141984 0.720719 0.000000
vt 0.998500 0.603105 0.000000
vt 0.029719 0.012837 0.000000
vt 0.099957 0.012837 0.000000
vt 0.998500 0.983438 0.000000
vt 0.266322 0.720719 0.000000
vt 0.029719 0.069704 0.000000
vt 0.224792 0.603105 0.000000
vt 0.131829 0.586471 0.000000
vt 0.067278 0.704088 0.000000
vt 0.347127 0.800558 0.000000
vt 0.201771 0.838787 0.000000
vt 0.872077 0.785986 0.000000
vt 0.872077 0.800558 0.000000
vt 0.206535 0.838787 0.000000
vt 0.096121 0.033549 0.000000
vt 0.184947 0.327230 0.000000
vt 0.125040 0.878329 0.000000
vt 0.066184 0.033550 0.000000
vt 0.072042 0.876706 0.000000
vt 0.726894 0.800558 0.000000
vt 0.612993 0.785040 0.000000
vt 0.066969 0.972267 0.000000
vt 0.033555 0.033549 0.000000
vt 0.014281 0.878329 0.000000
vt 0.810881 0.327230 0.000000
vt 0.421749 0.012592 0.000000
vt 0.810875 0.085540 0.000000
vt 0.184953 0.085540 0.000000
vt 0.421749 0.069559 0.000000
vt 0.096121 0.051904 0.000000
vt 0.350259 0.337810 0.000000
vt 0.345294 0.327001 0.000000
vt 0.456477 0.800558 0.000000
vt 0.417906 0.484839 0.000000
vt 0.066184 0.051911 0.000000
vt 0.063493 0.051911 0.000000
vt 0.423986 0.484839 0.000000
vt 0.456477 0.785986 0.000000
vt 0.033555 0.051904 0.000000
vt 0.650534 0.327001 0.000000
vt 0.491633 0.337810 0.000000
vt 0.697731 0.012592 0.000000
vt 0.650721 0.085168 0.000000
vt 0.345107 0.085168 0.000000
vt 0.697731 0.069559 0.000000
vt 0.125040 0.876687 0.000000
vt 0.184953 0.409743 0.000000
vt 0.610292 0.800558 0.000000
vt 0.726894 0.785986 0.000000
vt 0.067278 0.876706 0.000000
vt 0.063493 0.033550 0.000000
vt 0.810875 0.409743 0.000000
vt 0.014281 0.876687 0.000000
vt 0.345294 0.408953 0.000000
vt 0.350259 0.484876 0.000000
vt 0.572804 0.800558 0.000000
vt 0.572804 0.785986 0.000000
vt 0.029494 0.053227 0.000000
vt 0.461689 0.601884 0.000000
vt 0.132229 0.718180 0.000000
vt 0.066184 0.033550 0.000000
vt 0.072042 0.875706 0.000000
vt 0.066184 0.051911 0.000000
vt 0.417906 0.576359 0.000000
vt 0.063493 0.051911 0.000000
vt 0.423986 0.576359 0.000000
vt 0.096121 0.033550 0.000000
vt 0.125040 0.875687 0.000000
vt 0.184953 0.459721 0.000000
vt 0.063493 0.033550 0.000000
vt 0.067278 0.875706 0.000000
vt 0.033555 0.033550 0.000000
vt 0.810875 0.459721 0.000000
vt 0.014281 0.875687 0.000000
vt 0.096121 0.051904 0.000000
vt 0.345294 0.458931 0.000000
vt 0.350259 0.574563 0.000000
vt 0.491633 0.484876 0.000000
vt 0.650534 0.408953 0.000000
vt 0.096121 0.013902 0.000000
vt 0.969474 0.561755 0.000000
vt 0.013308 0.321071 0.000000
vt 0.828073 0.561755 0.000000
vt 0.033555 0.013902 0.000000
vt 0.982521 0.321071 0.000000
vt 0.810875 0.321071 0.000000
vt 0.033555 0.033550 0.000000
vt 0.650539 0.320292 0.000000
vt 0.033555 0.051903 0.000000
vt 0.501833 0.321071 0.000000
vt 0.033555 0.068926 0.000000
vt 0.168550 0.567166 0.000000
vt 0.096121 0.068926 0.000000
vt 0.493995 0.321071 0.000000
vt 0.022957 0.567166 0.000000
vt 0.096121 0.051903 0.000000
vt 0.345289 0.320292 0.000000
vt 0.096121 0.033550 0.000000
vt 0.184953 0.321071 0.000000
vt 0.347127 0.785093 0.000000
vt 0.072334 0.704088 0.000000
vt 0.125040 0.586471 0.000000
vt 0.033555 0.069704 0.000000
vt 0.456477 0.785093 0.000000
vt 0.063328 0.051911 0.000000
vt 0.456424 0.603105 0.000000
vt 0.029719 0.051904 0.000000
vt 0.259533 0.720719 0.000000
vt 0.096121 0.012837 0.000000
vt 0.872077 0.801451 0.000000
vt 0.206827 0.838787 0.000000
vt 0.726864 0.983438 0.000000
vt 0.099957 0.033549 0.000000
vt 0.726894 0.801451 0.000000
vt 0.066349 0.033550 0.000000
vt 0.033555 0.012837 0.000000
vt 0.148773 0.720719 0.000000
vt 0.872077 0.785093 0.000000
vt 0.201479 0.838787 0.000000
vt 0.726864 0.603105 0.000000
vt 0.029719 0.033549 0.000000
vt 0.726894 0.785093 0.000000
vt 0.063328 0.033550 0.000000
vt 0.096121 0.069704 0.000000
vt 0.014281 0.586471 0.000000
vt 0.347127 0.801451 0.000000
vt 0.066986 0.704088 0.000000
vt 0.456424 0.983438 0.000000
vt 0.099957 0.051904 0.000000
vt 0.456477 0.801451 0.000000
vt 0.066349 0.051911 0.000000
vt 0.610292 0.785986 0.000000
vt 0.072352 0.972267 0.000000
vt 0.612993 0.801503 0.000000
vt 0.570099 0.801503 0.000000
vt 0.066969 0.834668 0.000000
vt 0.072352 0.834668 0.000000
vt 0.570099 0.785040 0.000000
vt 0.491633 0.574563 0.000000
vt 0.650534 0.458931 0.000000
vt 0.033555 0.051904 0.000000
vt 0.072352 0.858639 0.000000
vt 0.066358 0.032226 0.000000
vt 0.066969 0.718102 0.000000
vt 0.066358 0.053235 0.000000
vt 0.072352 0.718102 0.000000
vt 0.063318 0.053235 0.000000
vt 0.721706 0.984660 0.000000
vt 0.132229 0.858620 0.000000
vt 0.100182 0.032226 0.000000
vt 0.066969 0.858639 0.000000
vt 0.063318 0.032226 0.000000
vt 0.007092 0.858620 0.000000
vt 0.721706 0.601884 0.000000
vt 0.029494 0.032226 0.000000
vt 0.007092 0.718180 0.000000
vt 0.461689 0.984660 0.000000
vt 0.100182 0.053227 0.000000
#end 176 texture vertices

#begin 78 faces
usemtl material
f 1/1/1 45/110/169 46/113/171 2/5/4 
usemtl material
f 1/2/5 2/4/6 24/63/75 23/60/73 
usemtl material
f 1/3/9 23/61/74 44/106/167 45/108/170 
usemtl material
f 2/6/13 46/112/172 47/115/173 24/62/76 
usemtl material
f 3/7/17 21/56/70 20/51/68 10/28/20 
usemtl material
f 5/14/21 6/17/22 41/99/162 42/101/164 
usemtl material
f 9/25/25 52/124/72 51/122/69 49/118/28 
usemtl material
f 57/135/29 53/126/30 12/32/31 11/29/32 
usemtl material
f 8/22/33 55/130/42 56/132/43 54/128/36 
usemtl material
f 61/143/37 50/120/38 3/8/39 10/27/40 
usemtl material
f 6/15/7 5/13/8 17/44/54 18/47/53 
usemtl material
f 5/12/10 42/103/163 43/104/166 17/45/55 
usemtl material
f 53/127/15 41/98/161 48/116/176 13/33/57 
usemtl material
f 11/30/18 12/31/19 14/38/60 27/67/59 
usemtl material
f 7/19/26 58/136/27 60/140/62 59/138/61 
usemtl material
f 4/10/34 62/144/35 64/148/67 63/146/66 
usemtl material
f 18/47/51 17/44/49 23/60/78 24/63/77 
usemtl material
f 17/45/50 43/104/165 44/106/168 23/61/79 
usemtl material
f 13/34/41 48/117/175 47/115/174 19/50/81 
usemtl material
f 65/150/46 26/66/44 30/74/84 31/75/83 
usemtl material
f 75/172/48 15/39/45 68/156/86 32/77/85 
usemtl material
f 66/152/64 73/166/63 76/175/88 67/153/87 
usemtl material
f 74/169/89 70/160/90 66/151/91 15/40/92 
usemtl material
f 70/160/93 73/167/95 66/151/96 
usemtl material
f 13/34/97 19/50/98 29/72/99 25/65/100 
usemtl material
f 19/49/101 20/52/102 29/73/104 
usemtl material
f 71/162/105 72/164/106 68/155/107 67/154/108 
usemtl material
f 72/164/109 32/78/111 68/155/112 
usemtl material
f 22/58/113 16/43/114 28/70/115 40/97/116 
usemtl material
f 16/42/117 27/68/118 28/71/120 
usemtl material
f 15/40/119 75/171/122 74/169/121 
usemtl material
f 13/35/94 25/64/124 14/37/123 
usemtl material
f 22/59/110 40/96/126 21/55/125 
usemtl material
f 67/154/103 76/174/128 71/162/127 
usemtl material
f 40/97/129 28/70/130 38/91/131 69/158/132 
usemtl material
f 28/71/133 27/68/134 37/89/135 38/92/136 
usemtl material
f 27/68/137 14/37/138 33/80/139 37/89/140 
usemtl material
f 14/37/141 25/64/142 36/86/143 33/80/144 
usemtl material
f 25/65/145 29/72/146 39/94/147 36/87/148 
usemtl material
f 29/73/149 20/52/150 34/82/151 39/95/152 
usemtl material
f 20/52/153 21/55/154 35/84/155 34/82/156 
usemtl material
f 21/55/157 40/96/158 69/157/159 35/84/160 
usemtl material
f 50/121/2 61/142/3 46/111/178 45/109/177 
usemtl material
f 22/57/71 50/121/12 45/109/180 44/107/179 
usemtl material
f 61/142/14 19/48/65 47/114/182 46/111/181 
usemtl material
f 53/127/23 57/134/24 42/102/184 41/98/183 
usemtl material
f 57/134/11 16/41/56 43/105/186 42/102/185 
usemtl material
f 6/16/16 18/46/58 48/117/188 41/100/187 
usemtl material
f 16/43/47 22/58/80 44/106/190 43/104/189 
usemtl material
f 18/46/52 24/62/82 47/115/192 48/117/191 
usemtl material
f 50/121/193 22/57/194 52/125/195 9/24/196 
usemtl material
f 22/57/197 21/54/198 51/123/199 52/125/200 
usemtl material
f 21/56/201 3/7/202 49/118/203 51/122/204 
usemtl material
f 3/8/205 50/120/206 9/26/207 49/119/208 
usemtl material
f 53/127/209 13/33/210 55/131/211 8/21/212 
usemtl material
f 13/33/213 14/36/214 56/133/215 55/131/216 
usemtl material
f 14/38/217 12/31/218 54/128/219 56/132/220 
usemtl material
f 12/32/221 53/126/222 8/23/223 54/129/224 
usemtl material
f 57/135/225 11/29/226 58/137/227 7/18/228 
usemtl material
f 11/30/229 27/67/230 60/140/231 58/136/232 
usemtl material
f 27/69/233 16/41/234 59/139/235 60/141/236 
usemtl material
f 16/41/237 57/134/238 7/20/239 59/139/240 
usemtl material
f 61/143/241 10/27/242 62/145/243 4/9/244 
usemtl material
f 10/28/245 20/51/246 64/148/247 62/144/248 
usemtl material
f 20/53/249 19/48/250 63/147/251 64/149/252 
usemtl material
f 19/48/253 61/142/254 4/11/255 63/147/256 
usemtl material
f 65/150/257 31/75/258 68/156/259 15/39/260 
usemtl material
f 31/75/261 30/74/262 67/153/263 68/156/264 
usemtl material
f 30/74/265 26/66/266 66/152/267 67/153/268 
usemtl material
f 26/66/269 65/150/270 15/39/271 66/152/272 
usemtl material
f 69/159/273 38/90/274 75/173/275 32/76/276 
usemtl material
f 38/90/277 37/88/278 74/170/279 75/173/280 
usemtl material
f 37/88/281 33/79/282 70/161/283 74/170/284 
usemtl material
f 33/79/285 36/85/286 73/168/287 70/161/288 
usemtl material
f 36/85/289 39/93/290 76/176/291 73/168/292 
usemtl material
f 39/93/293 34/81/294 71/163/295 76/176/296 
usemtl material
f 34/81/297 35/83/298 72/165/299 71/163/300 
usemtl material
f 35/83/301 69/159/302 32/76/303 72/165/304 
#end 78 faces
